# xmcd CD database file
#
# Track frame offsets:
#	150
#	16182
#	29820
#	46182
#	62470
#	77297
#	91465
#	105097
#	121167
#	132647
#	145867
#	162800
#	176947
#	189305
#	203400
#	218000
#
# Disc length: 3156 seconds
#
# Revision: 0
# Processed by: cddbd v1.5.2PL0 Copyright (c) Steve Scherf et al.
# Submitted via: CDex 1.50
#
DISCID=c90c5210
DTITLE=VARIÉS - LA BELLE ÉPOQUE  COUNTRY VOLUME II
DYEAR=2000
DGENRE=Country
TTITLE0=RICHARD HUET-COMBIEN DE FOIS JE T'AI BLESSÉ
TTITLE1=GERRY CORMIER-GUITARE &CADILLAC
TTITLE2=GERRY JOLY-MILLE APRES MILLE
TTITLE3=JOHN STARR-ALWAYS ON MY MIND
TTITLE4=ANDRÉ BRETON-LES LARMES DE MON PERE
TTITLE5=MARIE KING-ADIEU AMIS
TTITLE6=BOBY HACHEY-ANITA
TTITLE7=GERRY JOLY-Y A RIEN LA
TTITLE8=SERGE LEBRUN-LES 20 CENTS DE VAL CARTIER
TTITLE9=BOBY HACHEY-TU ES LA DANS MES PENSÉES
TTITLE10=DENIS CHAMPOUX-CE SOIR C'EST TA FETE
TTITLE11=JOHN STARR-WHY DO I HAVE TO CHOOSE
TTITLE12=RICHARD HUET-MON AMOUR REVIENS
TTITLE13=ANDRÉ BRETON-CHA CHA DU FUMEUR
TTITLE14=SERGE LEBRUN-PRIERE D'UNE MERE
TTITLE15=DENIS CHAMPOUX-J'ÉCOUTE WILLIE
EXTD=YEAR: 2000
EXTT0=
EXTT1=
EXTT2=
EXTT3=
EXTT4=
EXTT5=
EXTT6=
EXTT7=
EXTT8=
EXTT9=
EXTT10=
EXTT11=
EXTT12=
EXTT13=
EXTT14=
EXTT15=
PLAYORDER=
